<svg width="28" height="28" viewBox="0 0 28 28" fill="none" xmlns="http://www.w3.org/2000/svg">
<path style="fill: black;" d="M18.9443 12.161C18.9151 12.1095 18.8727 12.0666 18.8215 12.0368C18.7703 12.007 18.7122 11.9913 18.6529 11.9913H14.2662L15.0016 6.37194C15.0095 6.29673 14.9919 6.22106 14.9515 6.1571C14.9112 6.09315 14.8505 6.04463 14.7792 6.01936C14.7079 5.99409 14.6302 5.99354 14.5586 6.0178C14.487 6.04206 14.4256 6.08972 14.3844 6.1531L9.0496 15.4994C9.01841 15.5502 9.00131 15.6083 9.00007 15.6679C8.99884 15.7274 9.0135 15.7862 9.04257 15.8382C9.07163 15.8902 9.11403 15.9335 9.16541 15.9636C9.21678 15.9938 9.27526 16.0097 9.33483 16.0097H13.656L13.0732 21.6375C13.0675 21.7124 13.087 21.7871 13.1286 21.8497C13.1702 21.9123 13.2316 21.9591 13.3029 21.9828C13.3743 22.0065 13.4515 22.0057 13.5223 21.9804C13.5931 21.9552 13.6534 21.907 13.6936 21.8435L18.9402 12.4982C18.9707 12.4474 18.9871 12.3894 18.9878 12.3302C18.9885 12.2709 18.9735 12.2126 18.9443 12.161Z" fill="#A6A6A8"/>
</svg>
