<svg width="44" height="13" viewBox="0 0 44 13" fill="none" xmlns="http://www.w3.org/2000/svg">
<path d="M5.696 12V9.792H0.656V8.352L6.016 0.719999H7.68V8.224H9.296V9.792H7.68V12H5.696ZM5.696 8.224V3.152H6.08L2.192 8.704V8.224H5.696ZM14.3938 12.16C13.0711 12.16 12.0524 11.6587 11.3378 10.656C10.6231 9.64267 10.2658 8.20267 10.2658 6.336C10.2658 4.448 10.6231 3.01333 11.3378 2.032C12.0524 1.05067 13.0711 0.559999 14.3938 0.559999C15.7271 0.559999 16.7458 1.05067 17.4498 2.032C18.1644 3.01333 18.5218 4.44267 18.5218 6.32C18.5218 8.19733 18.1644 9.64267 17.4498 10.656C16.7458 11.6587 15.7271 12.16 14.3938 12.16ZM14.3938 10.464C15.1191 10.464 15.6578 10.1333 16.0098 9.472C16.3618 8.8 16.5378 7.74933 16.5378 6.32C16.5378 4.89067 16.3618 3.856 16.0098 3.216C15.6578 2.56533 15.1191 2.24 14.3938 2.24C13.6791 2.24 13.1404 2.56533 12.7778 3.216C12.4258 3.856 12.2498 4.89067 12.2498 6.32C12.2498 7.74933 12.4258 8.8 12.7778 9.472C13.1404 10.1333 13.6791 10.464 14.3938 10.464ZM24.6661 12V5.936C24.6661 5.60533 24.6555 5.26933 24.6341 4.928C24.6128 4.58667 24.5808 4.25067 24.5381 3.92H26.4741L26.6341 5.52H26.4421C26.6661 4.96533 27.0075 4.53333 27.4661 4.224C27.9355 3.91467 28.4901 3.76 29.1301 3.76C29.7701 3.76 30.2981 3.91467 30.7141 4.224C31.1408 4.52267 31.4395 4.992 31.6101 5.632H31.3541C31.5781 5.056 31.9461 4.60267 32.4581 4.272C32.9701 3.93067 33.5568 3.76 34.2181 3.76C35.1248 3.76 35.8021 4.02667 36.2501 4.56C36.6981 5.09333 36.9221 5.92533 36.9221 7.056V12H34.9221V7.136C34.9221 6.496 34.8155 6.03733 34.6021 5.76C34.3888 5.472 34.0475 5.328 33.5781 5.328C33.0235 5.328 32.5861 5.52533 32.2661 5.92C31.9461 6.304 31.7861 6.82667 31.7861 7.488V12H29.7861V7.136C29.7861 6.496 29.6795 6.03733 29.4661 5.76C29.2528 5.472 28.9115 5.328 28.4421 5.328C27.8875 5.328 27.4501 5.52533 27.1301 5.92C26.8208 6.304 26.6661 6.82667 26.6661 7.488V12H24.6661ZM38.7048 7.488V6.32L40.8008 4.24C41.0674 3.96267 41.2594 3.71733 41.3768 3.504C41.5048 3.28 41.5688 3.05067 41.5688 2.816C41.5688 2.26133 41.2381 1.984 40.5768 1.984C40.3101 1.984 40.0221 2.03733 39.7128 2.144C39.4034 2.25067 39.1314 2.39467 38.8968 2.576L38.5448 1.36C38.8328 1.14667 39.1794 0.975999 39.5848 0.848C40.0008 0.719999 40.4541 0.655999 40.9448 0.655999C41.6701 0.655999 42.2408 0.831999 42.6568 1.184C43.0834 1.52533 43.2968 1.99467 43.2968 2.592C43.2968 2.95467 43.2061 3.30667 43.0248 3.648C42.8541 3.98933 42.5714 4.34667 42.1768 4.72L40.5448 6.304V6.144H43.5528V7.488H38.7048Z" fill="#A6A6A8"/>
</svg>
