<svg width="28" height="28" viewBox="0 0 28 28" fill="none" xmlns="http://www.w3.org/2000/svg">
<path style="fill: black;" d="M23 12.668C23 12.6554 22.999 12.643 22.9981 12.6307V11.6117C22.9981 11.3205 22.762 11.0844 22.4708 11.0844C22.1795 11.0844 21.9434 11.3205 21.9434 11.6117V12.1407H6.05469V6.05469H10.0483V6.60601L9.60234 7.23833L8.71858 7.52341C8.55665 7.57565 8.42984 7.70285 8.37809 7.86495C8.32634 8.02706 8.35602 8.20418 8.45779 8.34058L9.01372 9.08589L9.01136 10.0163C9.01091 10.1867 9.09278 10.3467 9.23116 10.4461C9.32197 10.5113 9.42976 10.5451 9.53874 10.545C9.5958 10.545 9.65318 10.5358 9.70855 10.5169L10.5875 10.2179L11.4696 10.5075C11.6313 10.5606 11.8089 10.5323 11.9462 10.4315C12.0835 10.3306 12.1636 10.1697 12.1613 9.99943L12.149 9.06909L12.6969 8.31784C12.7972 8.18034 12.8249 8.00291 12.7714 7.84136C12.718 7.67982 12.5898 7.554 12.4273 7.50351L11.5405 7.22796L11.103 6.62151V5.52734C11.103 5.23611 10.8669 5 10.5756 5H5.52734C5.23611 5 5 5.23611 5 5.52734V17.1671V19.8496C5 20.7405 5.72411 21.4654 6.61413 21.4654H6.65329V22.4727C6.65329 22.7639 6.8894 23 7.18064 23C7.47187 23 7.70798 22.7639 7.70798 22.4727V21.4654H20.2901V22.4727C20.2901 22.7639 20.5262 23 20.8175 23C21.1087 23 21.3448 22.7639 21.3448 22.4727V21.4654H21.384C22.274 21.4654 22.9981 20.7406 22.9981 19.8496V17.1671V12.7054C22.999 12.693 23 12.6807 23 12.668ZM21.9434 14.4033H19.6094V13.1954H21.9434V14.4033ZM16.2207 16.6397V15.458H18.5548V16.6397H16.2207ZM11.7774 14.4033H9.4434V13.1954H11.7774V14.4033H11.7774ZM12.832 13.1954H15.1661V14.4033H12.832V13.1954ZM11.7774 15.458V16.6397H9.4434V15.458H11.7774ZM12.832 15.458H15.1661V16.6397H12.832V15.458ZM16.2207 14.4033V13.1954H18.5548V14.4033H16.2207ZM8.38871 13.1954V14.4033H6.05469V13.1954H8.38871ZM6.05469 16.6397V15.458H8.38871V16.6397H6.05469ZM8.91602 19.5799C8.62039 19.5799 8.40147 19.3383 8.38868 19.0526C8.37591 18.7678 8.64018 18.5252 8.91602 18.5252C9.21165 18.5252 9.43057 18.7669 9.44336 19.0526C9.45612 19.3374 9.19186 19.5799 8.91602 19.5799ZM19.0821 19.5799C18.7865 19.5799 18.5675 19.3383 18.5547 19.0526C18.542 18.7678 18.8062 18.5252 19.0821 18.5252C19.3777 18.5252 19.5966 18.7669 19.6094 19.0526C19.6222 19.3374 19.3579 19.5799 19.0821 19.5799ZM19.6095 16.6397V15.458H21.9434V16.6397H19.6095Z" fill="#A6A6A8"/>
</svg>
