<svg width="28" height="28" viewBox="0 0 28 28" fill="none" xmlns="http://www.w3.org/2000/svg">
<path style="fill: black;" d="M7.34922 12.0664H20.3492C20.7082 12.0664 20.9992 11.7778 20.9992 11.4219V10.7773C20.9992 10.0654 20.4172 9.48828 19.6992 9.48828H7.99922C7.28123 9.48828 6.69922 10.0654 6.69922 10.7773V11.4219C6.69922 11.7778 6.99025 12.0664 7.34922 12.0664Z" fill="#A6A6A8"/>
<path style="fill: black;" d="M18.3989 6.22265C18.3989 4.44577 16.9408 3 15.1489 3H12.5488C10.7569 3 9.29883 4.44577 9.29883 6.22265V8.19921H18.3989V6.22265Z" fill="#A6A6A8"/>
<path style="fill: black;" d="M10.3354 15.9008C10.6014 16.6914 11.3447 17.2226 12.1851 17.2226H13.1982V13.3555H9.22181L8.00202 24.2843C7.96268 24.638 8.21973 24.9565 8.57649 24.9962C8.93321 25.0346 9.25505 24.7809 9.2944 24.4265L9.66342 21.0898H18.0329L18.402 24.4265C18.4388 24.7563 18.7207 24.9999 19.0475 24.9999C19.071 24.9999 19.0957 24.9987 19.1199 24.9962C19.4766 24.9565 19.7337 24.638 19.6944 24.2843L18.4746 13.3555H14.4982V17.2226H15.5113C16.3518 17.2226 17.095 16.6914 17.361 15.9008L17.4289 15.6994L17.8885 19.8007H9.8079L10.2674 15.6988L10.3354 15.9008Z" fill="#A6A6A8"/>
</svg>
