<svg width="28" height="28" viewBox="0 0 28 28" fill="none" xmlns="http://www.w3.org/2000/svg">
<path style="fill: black;" d="M11.0414 8.91908C11.166 9.11982 11.3817 9.23025 11.6025 9.23025C11.7208 9.23025 11.8405 9.19854 11.9485 9.13209C12.258 8.94148 12.3538 8.53711 12.1624 8.22886C12.0187 7.9975 12.0883 7.67276 12.2201 7.1655C12.3618 6.62044 12.538 5.94207 12.1687 5.3217C11.9832 5.00997 11.5791 4.90704 11.2659 5.09178C10.9528 5.27656 10.8494 5.67906 11.035 5.99083C11.1248 6.14172 11.033 6.49504 10.9442 6.83679C10.787 7.44172 10.5914 8.19451 11.0414 8.91908Z" fill="#A6A6A8"/>
<path style="fill: black;" d="M13.1507 8.91898C13.2754 9.11972 13.491 9.23018 13.7118 9.23018C13.8301 9.23018 13.9498 9.19851 14.0578 9.13203C14.3673 8.94148 14.4631 8.53708 14.2717 8.22887C14.128 7.99744 14.1976 7.67277 14.3294 7.16547C14.4711 6.62041 14.6473 5.94207 14.2781 5.32171C14.0925 5.00995 13.6882 4.90704 13.3752 5.09179C13.0621 5.27657 12.9587 5.67907 13.1443 5.9908C13.2341 6.14169 13.1423 6.49504 13.0535 6.83676C12.8964 7.44162 12.7008 8.19442 13.1507 8.91898Z" fill="#A6A6A8"/>
<path style="fill: black;" d="M7.67188 16.22L8.26907 20.1235C8.27242 20.1452 8.27408 20.1673 8.27408 20.1893C8.27408 20.937 8.82336 21.5591 9.54116 21.6772L9.08314 16.22H7.67188Z" fill="#A6A6A8"/>
<path style="fill: black;" d="M10.4246 21.6977H12.219V21.3978C12.036 21.0852 11.8836 20.75 11.7679 20.3947C11.6169 19.9302 11.6989 19.4172 11.9872 19.0225C12.0552 18.9294 12.1333 18.8455 12.219 18.771V16.22H9.96484L10.4246 21.6977Z" fill="#A6A6A8"/>
<path style="fill: black;" d="M13.2308 18.3919H15.1696L15.3519 16.22H13.0977V18.3984C13.1418 18.3945 13.1861 18.3919 13.2308 18.3919Z" fill="#A6A6A8"/>
<path style="fill: black;" d="M16.0508 18.3919H17.312L17.6443 16.22H16.2331L16.0508 18.3919Z" fill="#A6A6A8"/>
<path style="fill: black;" d="M18.1629 12.8287L18.3063 11.8912C18.3428 11.6522 18.2731 11.4098 18.1148 11.2264C17.9565 11.043 17.7265 10.9377 17.4836 10.9377H16.6761L16.5195 12.8036H17.9438C18.0181 12.8036 18.0916 12.8123 18.1629 12.8287Z" fill="#A6A6A8"/>
<path style="fill: black;" d="M7.36295 12.8036H8.79632L8.63971 10.9377H7.83223C7.58937 10.9377 7.35928 11.043 7.20101 11.2264C7.04277 11.4098 6.97297 11.6522 7.00951 11.8912L7.15264 12.8267C7.22127 12.8116 7.29171 12.8036 7.36295 12.8036Z" fill="#A6A6A8"/>
<path style="fill: black;" d="M12.217 12.8036V10.9377H9.51953L9.67615 12.8036H12.217Z" fill="#A6A6A8"/>
<path style="fill: black;" d="M13.0977 12.8036H15.6387L15.7952 10.9377H13.0977V12.8036Z" fill="#A6A6A8"/>
<path style="fill: black;" d="M24.8783 10.471C24.6679 10.1753 24.2567 10.1054 23.9596 10.3149C23.8229 10.4114 20.6827 12.6942 19.5374 19.2233H13.2899C13.079 19.2233 12.8809 19.3238 12.7569 19.4936C12.6329 19.6634 12.598 19.882 12.6629 20.0817C13.2307 21.8273 14.8506 23.0001 16.6938 23.0001C18.5314 23.0001 20.147 21.8343 20.7194 20.0975C20.7341 20.0561 20.7447 20.0127 20.7507 19.968C20.9088 18.9319 21.1201 18.0092 21.3603 17.1925C21.8902 15.3906 22.5604 14.1056 23.1081 13.262C23.2152 13.0972 23.3205 12.9443 23.423 12.803C24.1426 11.8102 24.7176 11.3886 24.7215 11.3858C25.0185 11.1763 25.0886 10.7667 24.8783 10.471Z" fill="#A6A6A8"/>
<path style="fill: black;" d="M17.5944 15.7077C17.8308 15.7077 18.0303 15.5328 18.0602 15.2993L18.2482 13.8283C18.284 13.5489 18.0653 13.3018 17.7825 13.3018H7.53205C7.24925 13.3018 7.0306 13.5489 7.06633 13.8283L7.25437 15.2993C7.2842 15.5328 7.48375 15.7077 7.72008 15.7077H17.5944Z" fill="#A6A6A8"/>
</svg>
