<svg width="28" height="28" viewBox="0 0 28 28" fill="none" xmlns="http://www.w3.org/2000/svg">
<path d="M21.5714 13.5656C21.1662 13.402 20.7283 13.3178 20.2857 13.3181H8.71429C8.27172 13.3177 7.8339 13.4019 7.42857 13.5652C6.85571 13.7955 6.36823 14.1742 6.02573 14.655C5.68324 15.1358 5.50055 15.698 5.5 16.2727V20.4091C5.5 20.5658 5.56773 20.7161 5.68829 20.8269C5.80885 20.9377 5.97236 21 6.14286 21C6.31335 21 6.47687 20.9377 6.59743 20.8269C6.71798 20.7161 6.78571 20.5658 6.78571 20.4091V20.1136C6.78676 20.0356 6.82096 19.961 6.88101 19.9058C6.94107 19.8506 7.02222 19.8191 7.10714 19.8182H21.8929C21.9778 19.8191 22.0589 19.8506 22.119 19.9058C22.179 19.961 22.2132 20.0356 22.2143 20.1136V20.4091C22.2143 20.5658 22.282 20.7161 22.4026 20.8269C22.5231 20.9377 22.6866 21 22.8571 21C23.0276 21 23.1912 20.9377 23.3117 20.8269C23.4323 20.7161 23.5 20.5658 23.5 20.4091V16.2727C23.4994 15.698 23.3167 15.136 22.9742 14.6552C22.6317 14.1745 22.1442 13.7958 21.5714 13.5656Z" fill="#A6A6A8"/>
<path d="M19.3225 8H9.67969C9.08295 8 8.51065 8.2179 8.0887 8.60576C7.66674 8.99362 7.42969 9.51968 7.42969 10.0682V12.7273C7.42971 12.7502 7.43551 12.7728 7.44665 12.7933C7.45778 12.8137 7.47394 12.8316 7.49385 12.8453C7.51376 12.8591 7.53688 12.8684 7.56137 12.8725C7.58587 12.8766 7.61107 12.8755 7.635 12.8691C7.98594 12.7748 8.34976 12.727 8.7154 12.7273H8.88536C8.92503 12.7275 8.96339 12.7143 8.99306 12.6901C9.02273 12.6659 9.04161 12.6324 9.04607 12.5962C9.08114 12.3075 9.23068 12.0407 9.46614 11.8469C9.7016 11.6531 10.0065 11.5458 10.3225 11.5455H12.5725C12.8888 11.5455 13.194 11.6527 13.4297 11.8465C13.6654 12.0404 13.8151 12.3073 13.8502 12.5962C13.8547 12.6324 13.8736 12.6659 13.9032 12.6901C13.9329 12.7143 13.9713 12.7275 14.0109 12.7273H14.9937C15.0334 12.7275 15.0717 12.7143 15.1014 12.6901C15.1311 12.6659 15.15 12.6324 15.1544 12.5962C15.1895 12.3077 15.3388 12.0411 15.574 11.8473C15.8092 11.6535 16.1138 11.546 16.4297 11.5455H18.6797C18.996 11.5455 19.3011 11.6527 19.5369 11.8465C19.7726 12.0404 19.9223 12.3073 19.9574 12.5962C19.9618 12.6324 19.9807 12.6659 20.0104 12.6901C20.0401 12.7143 20.0784 12.7275 20.1181 12.7273H20.2868C20.6525 12.7271 21.0163 12.775 21.3672 12.8695C21.3912 12.8759 21.4164 12.877 21.441 12.8729C21.4655 12.8687 21.4886 12.8594 21.5085 12.8456C21.5285 12.8318 21.5446 12.8139 21.5557 12.7934C21.5668 12.7729 21.5726 12.7502 21.5725 12.7273V10.0682C21.5725 9.51968 21.3355 8.99362 20.9135 8.60576C20.4916 8.2179 19.9193 8 19.3225 8Z" fill="#A6A6A8"/>
</svg>
