<svg width="28" height="28" viewBox="0 0 28 28" fill="none" xmlns="http://www.w3.org/2000/svg">
<path d="M21.8627 8.82757L21.0814 8.04556C20.9935 7.95757 20.8743 7.90811 20.75 7.90811H20.152C20.0872 6.84508 19.203 6 18.125 6H9.875C8.79697 6 7.91281 6.84508 7.84797 7.90811H7.25C7.12566 7.90811 7.00644 7.95757 6.91856 8.04556L6.13731 8.82757C6.04938 8.91557 6 9.0349 6 9.15934V11.5054C6 11.7645 6.20987 11.9746 6.46875 11.9746C6.72763 11.9746 6.9375 11.7645 6.9375 11.5054V9.35368L7.44416 8.84653H7.84375V14.5048C9.78456 14.8894 18.2698 14.8786 20.1562 14.5048V8.84653H20.5558L21.0625 9.35368V11.5054C21.0625 11.7645 21.2724 11.9746 21.5312 11.9746C21.7901 11.9746 22 11.7645 22 11.5054V9.15934C22 9.0349 21.9506 8.91557 21.8627 8.82757Z" fill="#A6A6A8"/>
<path d="M8.375 21.0276V21.2181C8.375 21.6494 8.72531 22.0001 9.15625 22.0001H10.625C11.0559 22.0001 11.4062 21.6494 11.4062 21.2181V21.046C8.47522 21.0398 8.59228 21.0601 8.375 21.0276Z" fill="#A6A6A8"/>
<path d="M16.5938 21.046V21.2181C16.5938 21.6494 16.9441 22.0001 17.375 22.0001H18.8438C19.2747 22.0001 19.625 21.6494 19.625 21.2181V21.0276C19.4077 21.0601 19.5251 21.0398 16.5938 21.046Z" fill="#A6A6A8"/>
<path d="M7.84375 15.4578V17.1931L10.7988 17.7059C10.971 17.7357 11.1122 17.859 11.1653 18.0255L11.8292 20.1076H16.1709L16.8348 18.0255C16.8879 17.8589 17.0291 17.7357 17.2013 17.7059L20.1562 17.1931V15.4578C17.8985 15.8186 10.1027 15.8187 7.84375 15.4578ZM15.4062 17.7615H12.5938C12.3349 17.7615 12.125 17.5514 12.125 17.2923C12.125 17.0332 12.3349 16.8231 12.5938 16.8231H15.4062C15.6651 16.8231 15.875 17.0332 15.875 17.2923C15.875 17.5514 15.6651 17.7615 15.4062 17.7615Z" fill="#A6A6A8"/>
<path d="M17.1543 20.1075H19.3744C19.8051 20.1075 20.1556 19.7567 20.1556 19.3255V18.1455L17.6407 18.5818L17.1543 20.1075Z" fill="#A6A6A8"/>
<path d="M10.8451 20.1075L10.3586 18.5818L7.84375 18.1455V19.3255C7.84375 19.7567 8.19422 20.1075 8.625 20.1075H10.8451Z" fill="#A6A6A8"/>
</svg>
