<svg width="16" height="16" viewBox="0 0 16 16" fill="none" xmlns="http://www.w3.org/2000/svg">
<path d="M11.1671 2.37331V1.33331C11.1671 1.05998 10.9405 0.833313 10.6671 0.833313C10.3938 0.833313 10.1671 1.05998 10.1671 1.33331V2.33331H5.83381V1.33331C5.83381 1.05998 5.60715 0.833313 5.33381 0.833313C5.06048 0.833313 4.83381 1.05998 4.83381 1.33331V2.37331C3.03381 2.53998 2.16048 3.61331 2.02714 5.20665C2.01381 5.39998 2.17381 5.55998 2.36048 5.55998H13.6405C13.8338 5.55998 13.9938 5.39331 13.9738 5.20665C13.8405 3.61331 12.9671 2.53998 11.1671 2.37331Z" fill="black"/>
<path d="M13.3333 6.55997H2.66667C2.3 6.55997 2 6.85997 2 7.22663V11.3333C2 13.3333 3 14.6666 5.33333 14.6666H10.6667C13 14.6666 14 13.3333 14 11.3333V7.22663C14 6.85997 13.7 6.55997 13.3333 6.55997ZM6.14 12.14C6.10667 12.1666 6.07333 12.2 6.04 12.22C6 12.2466 5.96 12.2666 5.92 12.28C5.88 12.3 5.84 12.3133 5.8 12.32C5.75333 12.3266 5.71333 12.3333 5.66667 12.3333C5.58 12.3333 5.49333 12.3133 5.41333 12.28C5.32667 12.2466 5.26 12.2 5.19333 12.14C5.07333 12.0133 5 11.84 5 11.6666C5 11.4933 5.07333 11.32 5.19333 11.1933C5.26 11.1333 5.32667 11.0866 5.41333 11.0533C5.53333 11 5.66667 10.9866 5.8 11.0133C5.84 11.02 5.88 11.0333 5.92 11.0533C5.96 11.0666 6 11.0866 6.04 11.1133C6.07333 11.14 6.10667 11.1666 6.14 11.1933C6.26 11.32 6.33333 11.4933 6.33333 11.6666C6.33333 11.84 6.26 12.0133 6.14 12.14ZM6.14 9.80663C6.01333 9.92663 5.84 9.99997 5.66667 9.99997C5.49333 9.99997 5.32 9.92663 5.19333 9.80663C5.07333 9.67997 5 9.50663 5 9.3333C5 9.15997 5.07333 8.98663 5.19333 8.85997C5.38 8.6733 5.67333 8.6133 5.92 8.71997C6.00667 8.7533 6.08 8.79997 6.14 8.85997C6.26 8.98663 6.33333 9.15997 6.33333 9.3333C6.33333 9.50663 6.26 9.67997 6.14 9.80663ZM8.47333 12.14C8.34667 12.26 8.17333 12.3333 8 12.3333C7.82667 12.3333 7.65333 12.26 7.52667 12.14C7.40667 12.0133 7.33333 11.84 7.33333 11.6666C7.33333 11.4933 7.40667 11.32 7.52667 11.1933C7.77333 10.9466 8.22667 10.9466 8.47333 11.1933C8.59333 11.32 8.66667 11.4933 8.66667 11.6666C8.66667 11.84 8.59333 12.0133 8.47333 12.14ZM8.47333 9.80663C8.44 9.8333 8.40667 9.85997 8.37333 9.88663C8.33333 9.9133 8.29333 9.9333 8.25333 9.94663C8.21333 9.96663 8.17333 9.97997 8.13333 9.98663C8.08667 9.9933 8.04667 9.99997 8 9.99997C7.82667 9.99997 7.65333 9.92663 7.52667 9.80663C7.40667 9.67997 7.33333 9.50663 7.33333 9.3333C7.33333 9.15997 7.40667 8.98663 7.52667 8.85997C7.58667 8.79997 7.66 8.7533 7.74667 8.71997C7.99333 8.6133 8.28667 8.6733 8.47333 8.85997C8.59333 8.98663 8.66667 9.15997 8.66667 9.3333C8.66667 9.50663 8.59333 9.67997 8.47333 9.80663ZM10.8067 12.14C10.68 12.26 10.5067 12.3333 10.3333 12.3333C10.16 12.3333 9.98667 12.26 9.86 12.14C9.74 12.0133 9.66667 11.84 9.66667 11.6666C9.66667 11.4933 9.74 11.32 9.86 11.1933C10.1067 10.9466 10.56 10.9466 10.8067 11.1933C10.9267 11.32 11 11.4933 11 11.6666C11 11.84 10.9267 12.0133 10.8067 12.14ZM10.8067 9.80663C10.7733 9.8333 10.74 9.85997 10.7067 9.88663C10.6667 9.9133 10.6267 9.9333 10.5867 9.94663C10.5467 9.96663 10.5067 9.97997 10.4667 9.98663C10.42 9.9933 10.3733 9.99997 10.3333 9.99997C10.16 9.99997 9.98667 9.92663 9.86 9.80663C9.74 9.67997 9.66667 9.50663 9.66667 9.3333C9.66667 9.15997 9.74 8.98663 9.86 8.85997C9.92667 8.79997 9.99333 8.7533 10.08 8.71997C10.2 8.66663 10.3333 8.6533 10.4667 8.67997C10.5067 8.68663 10.5467 8.69997 10.5867 8.71997C10.6267 8.7333 10.6667 8.7533 10.7067 8.77997C10.74 8.80663 10.7733 8.8333 10.8067 8.85997C10.9267 8.98663 11 9.15997 11 9.3333C11 9.50663 10.9267 9.67997 10.8067 9.80663Z" fill="black"/>
</svg>
