<svg width="28" height="28" viewBox="0 0 28 28" fill="none" xmlns="http://www.w3.org/2000/svg">
<path style="fill: black;" d="M6.5 10.6875V21.5312C6.5 21.7901 6.70987 22 6.96875 22H22.0312C22.2901 22 22.5 21.7901 22.5 21.5312V10.6875H6.5ZM20.625 19.6562C20.625 19.9151 20.4151 20.125 20.1562 20.125H8.84375C8.58488 20.125 8.375 19.9151 8.375 19.6562V12.0938C8.375 11.8349 8.58488 11.625 8.84375 11.625H20.1562C20.4151 11.625 20.625 11.8349 20.625 12.0938V19.6562Z" fill="#A6A6A8"/>
<path style="fill: black;" d="M15.75 19.1875C16.8718 19.1875 17.7812 18.2781 17.7812 17.1562C17.7812 16.0344 16.8718 15.125 15.75 15.125C14.6282 15.125 13.7188 16.0344 13.7188 17.1562C13.7188 18.2781 14.6282 19.1875 15.75 19.1875Z" fill="#A6A6A8"/>
<path style="fill: black;" d="M12.7812 17.1562C12.7812 16.3834 13.0782 15.6787 13.5638 15.15C13.4602 15.1336 13.3552 15.125 13.25 15.125C12.13 15.125 11.2188 16.0362 11.2188 17.1562C11.2188 18.2763 12.13 19.1875 13.25 19.1875C13.3552 19.1875 13.4602 19.1789 13.5638 19.1625C13.0782 18.6338 12.7812 17.9291 12.7812 17.1562Z" fill="#A6A6A8"/>
<path style="fill: black;" d="M9.3125 19.1875H11.0871C10.5877 18.6561 10.2812 17.9413 10.2812 17.1562C10.2812 15.5193 11.613 14.1875 13.25 14.1875C13.6807 14.1875 14.1072 14.283 14.4981 14.4648C14.8787 14.287 15.3029 14.1875 15.75 14.1875C17.387 14.1875 18.7188 15.5193 18.7188 17.1562C18.7188 17.9413 18.4123 18.6561 17.9129 19.1875H19.6875V12.5625H9.3125V19.1875Z" fill="#A6A6A8"/>
<path style="fill: black;" d="M22.0312 6H6.96875C6.70987 6 6.5 6.20987 6.5 6.46875V9.75H22.5V6.46875C22.5 6.20987 22.2901 6 22.0312 6ZM10.75 8.34375H8.875C8.61613 8.34375 8.40625 8.13387 8.40625 7.875C8.40625 7.61612 8.61613 7.40625 8.875 7.40625H10.75C11.0089 7.40625 11.2188 7.61612 11.2188 7.875C11.2188 8.13387 11.0089 8.34375 10.75 8.34375ZM12.625 8.34375C12.3661 8.34375 12.1562 8.13387 12.1562 7.875C12.1562 7.61612 12.3661 7.40625 12.625 7.40625C12.8839 7.40625 13.0938 7.61612 13.0938 7.875C13.0938 8.13387 12.8839 8.34375 12.625 8.34375ZM14.5 8.34375C14.2411 8.34375 14.0312 8.13387 14.0312 7.875C14.0312 7.61612 14.2411 7.40625 14.5 7.40625C14.7589 7.40625 14.9688 7.61612 14.9688 7.875C14.9688 8.13387 14.7589 8.34375 14.5 8.34375ZM16.375 8.34375C16.1161 8.34375 15.9062 8.13387 15.9062 7.875C15.9062 7.61612 16.1161 7.40625 16.375 7.40625C16.6339 7.40625 16.8438 7.61612 16.8438 7.875C16.8438 8.13387 16.6339 8.34375 16.375 8.34375ZM20.125 8.34375H18.25C17.9911 8.34375 17.7812 8.13387 17.7812 7.875C17.7812 7.61612 17.9911 7.40625 18.25 7.40625H20.125C20.3839 7.40625 20.5938 7.61612 20.5938 7.875C20.5938 8.13387 20.3839 8.34375 20.125 8.34375Z" fill="#A6A6A8"/>
</svg>
