<svg width="28" height="28" viewBox="0 0 28 28" fill="none" xmlns="http://www.w3.org/2000/svg">
<path style="fill: black;" d="M19.8023 5H7.19835C6.26213 5 5.5 5.71227 5.5 6.58801V6.62809C7.86573 7.87649 10.5954 8.58911 13.5003 8.58911C16.4052 8.58911 19.1349 7.87649 21.5006 6.62809V6.58801C21.5006 5.71227 20.7385 5 19.8023 5ZM11.2444 7.23418C10.9331 7.23418 10.6804 6.99793 10.6804 6.70684C10.6804 6.41539 10.9331 6.17949 11.2444 6.17949C11.5557 6.17949 11.8084 6.41539 11.8084 6.70684C11.8084 6.99793 11.5557 7.23418 11.2444 7.23418ZM13.5003 7.23418C13.189 7.23418 12.9363 6.99793 12.9363 6.70684C12.9363 6.41539 13.189 6.17949 13.5003 6.17949C13.8116 6.17949 14.0643 6.41539 14.0643 6.70684C14.0643 6.99793 13.8116 7.23418 13.5003 7.23418ZM15.7563 7.23418C15.4449 7.23418 15.1923 6.99793 15.1923 6.70684C15.1923 6.41539 15.4449 6.17949 15.7563 6.17949C16.0676 6.17949 16.3202 6.41539 16.3202 6.70684C16.3202 6.99793 16.0676 7.23418 15.7563 7.23418Z" fill="#A6A6A8"/>
<path style="fill: black;" d="M12.1034 17.6545C10.3143 18.0853 9.69861 16.596 9.13605 17.0284C8.88978 17.2182 8.73261 17.6594 8.71043 17.9783C8.64606 18.8941 9.5049 20.1232 10.5114 20.1232C11.4151 20.1232 12.3033 18.9663 12.7647 18.2384C12.4918 18.1031 12.2628 17.9006 12.1034 17.6545Z" fill="#A6A6A8"/>
<path style="fill: black;" d="M14.0881 17.0415C14.2086 16.7695 14.0706 16.4577 13.7797 16.3449C13.4888 16.2322 13.1553 16.3613 13.0347 16.6333C12.9141 16.9052 13.0522 17.2171 13.3431 17.3299C13.634 17.4426 13.9675 17.3135 14.0881 17.0415Z" fill="#A6A6A8"/>
<path style="fill: black;" d="M12.5499 15.5578C12.7921 15.3901 13.0835 15.2815 13.4001 15.254C13.7585 13.5726 15.4648 13.6832 15.292 13.0276C15.2165 12.7375 14.8596 12.4138 14.5622 12.2563C14.0584 11.9898 13.2948 11.942 12.662 12.1378C10.9935 12.6542 11.5705 14.1786 12.5499 15.5578Z" fill="#A6A6A8"/>
<path style="fill: black;" d="M15.9446 20.3191C16.2435 20.4243 16.7308 20.3307 17.0376 20.1898C17.9282 19.7797 18.6472 18.4437 18.105 17.6276C17.6982 17.0155 16.4657 16.7891 15.2539 16.7754C15.2687 17.0342 15.2028 17.334 15.043 17.603C16.3287 18.8283 15.2663 20.0807 15.9446 20.3191Z" fill="#A6A6A8"/>
<path style="fill: black;" d="M5.5 7.83325V21.412C5.5 22.2878 6.26213 23 7.19835 23H19.8023C20.7385 23 21.5006 22.2878 21.5006 21.412V7.83325C19.0368 9.02153 16.3232 9.6438 13.5003 9.6438C10.6796 9.6438 7.96612 9.02259 5.5 7.83325ZM16.1984 13.8492C15.761 14.4786 14.977 14.62 14.7227 14.9742C14.6046 15.1384 14.5275 15.323 14.4956 15.5121C14.5952 15.574 14.6877 15.6457 14.7712 15.7255C15.3727 15.7072 16.1619 15.7272 16.9248 15.8805C17.9565 16.0876 18.6758 16.488 19.0631 17.0709C19.4376 17.6345 19.5207 18.3478 19.2969 19.0787C18.5316 21.5784 15.3949 22.0919 14.708 20.5567C14.2916 19.6242 14.9874 18.9993 14.1985 18.3046C14.1275 18.3316 14.0541 18.3548 13.9789 18.3728C13.6955 18.8695 13.2826 19.4978 12.7604 20.0388C10.1094 22.7852 7.44184 19.9628 7.58562 17.909C7.66002 16.8508 8.39659 15.772 9.53475 15.908C10.331 16.0033 10.8081 16.6018 11.2594 16.6621C11.4688 16.6902 11.6801 16.6747 11.8757 16.6199C11.8805 16.5865 11.8862 16.5534 11.893 16.5211C11.0113 15.391 10.0628 13.7227 10.665 12.4482C10.9522 11.8414 11.5354 11.3756 12.3073 11.1365C14.9565 10.3175 17.1662 12.4583 16.1984 13.8492Z" fill="#A6A6A8"/>
</svg>
