<svg width="28" height="28" viewBox="0 0 28 28" fill="none" xmlns="http://www.w3.org/2000/svg">
<path d="M20.5 10.2759V5.84082C20.5 4.82567 19.639 3.99988 18.5806 3.99988H9.41941C8.36099 3.99988 7.5 4.82567 7.5 5.84082V10.2757H20.5V10.2759ZM16.6609 7.09613C16.6609 6.77265 16.9343 6.51021 17.2718 6.51021C17.6092 6.51021 17.8827 6.77265 17.8827 7.09613V8.3513C17.8827 8.67493 17.6092 8.93723 17.2718 8.93723C16.9343 8.93723 16.6609 8.67493 16.6609 8.3513V7.09613Z" fill="#A6A6A8"/>
<path d="M7.5 11.4481V20.9035C7.5 21.9187 8.36099 22.7449 9.41941 22.7449H9.46301V23.414C9.46301 23.7376 9.73648 23.9999 10.0739 23.9999C10.4113 23.9999 10.6848 23.7376 10.6848 23.414V22.7449H17.3152V23.414C17.3152 23.7376 17.5887 23.9999 17.9261 23.9999C18.2635 23.9999 18.537 23.7376 18.537 23.414V22.7449H18.5806C19.639 22.7449 20.5 21.9187 20.5 20.9035V11.4481H7.5ZM17.8827 16.5104C17.8827 16.8341 17.6092 17.0964 17.2718 17.0964C16.9343 17.0964 16.6609 16.8341 16.6609 16.5104V13.3725C16.6609 13.0489 16.9343 12.7866 17.2718 12.7866C17.6092 12.7866 17.8827 13.0489 17.8827 13.3725V16.5104Z" fill="#A6A6A8"/>
</svg>
