<svg width="28" height="28" viewBox="0 0 28 28" fill="none" xmlns="http://www.w3.org/2000/svg">
<path d="M23.5 13.5154V19.4261C23.5 19.8048 23.3182 19.9961 22.9619 20C22.6873 20 22.409 20 22.1344 20C21.7893 20 21.6 19.797 21.6 19.43C21.6 19.0123 21.6 18.5906 21.6 18.1729V18.0089H6.40371V18.415V19.4691C6.4 19.7853 6.21074 19.9922 5.91758 19.9961C5.60957 20 5.30156 20 4.99355 19.9961C4.70039 19.9922 4.51113 19.7892 4.5 19.4808C4.5 19.3949 4.5 19.309 4.5 19.2231V8.67832C4.5 8.63148 4.5 8.58463 4.5 8.53388C4.50742 8.21375 4.69668 8.00683 5.00098 8.00293C5.29414 7.99902 5.59102 7.99902 5.88418 8.00293C6.21445 8.00683 6.40371 8.20594 6.40371 8.5573V14.9872H13.05V10.6108C13.05 10.1853 13.2281 10.0018 13.6252 10.0018H20.1379C21.8895 10.0057 23.2848 11.3174 23.4814 13.1445C23.4963 13.2656 23.5 13.3905 23.5 13.5154Z" fill="#A6A6A8"/>
<path d="M9.72656 9.00244C11.0365 9.00244 12.1016 10.1229 12.0979 11.501C12.0941 12.8791 11.0328 13.9996 9.72285 13.9957C8.41289 13.9957 7.35156 12.8752 7.35156 11.4971C7.35156 10.119 8.41289 9.00244 9.72656 9.00244Z" fill="#A6A6A8"/>
</svg>
