<svg style="padding:0 6px;" width="16" height="14" viewBox="0 0 16 12" fill="none" xmlns="http://www.w3.org/2000/svg">
    <path d="M8.00002 5.24675H5.33334V3.16882C5.33334 2.31173 6.0534 1.61037 6.93335 1.61037H12.8C13.68 1.61037 14.4 2.31173 14.4 3.16882V5.24675H11.7334V4.72726C11.7334 4.15578 11.2534 3.6883 10.6667 3.6883H9.06669C8.47997 3.6883 8.00002 4.15578 8.00002 4.72726V5.24675ZM14.9334 9.92208V10.961H16V12H0V10.961H1.6V5.24675H2.66667V10.961H4.80001V9.92208H3.73334V7.84415C3.73334 6.98478 4.45105 6.28571 5.33334 6.28571H14.4C15.2823 6.28571 16 6.98478 16 7.84415V9.92208H14.9334ZM13.8667 9.92208H5.86668V10.961H13.8667V9.92208ZM3.43282 0.908516L3.30287 0.571411H0.963804L0.833856 0.908516C0.638283 1.41658 0 3.11885 0 3.6883V4.20778H4.26668V3.6883C4.26668 3.11885 3.62839 1.41658 3.43282 0.908516Z" fill="#A6A6A8"/>
</svg>