<svg width="28" height="28" viewBox="0 0 28 28" fill="none" xmlns="http://www.w3.org/2000/svg">
<path style="fill: black;" d="M20.9681 5H8.03192C7.18724 5 6.5 5.69876 6.5 6.55769V8.63461H22.5V6.55769C22.5 5.69876 21.8128 5 20.9681 5ZM17.9037 7.85576H16.8827C16.6007 7.85576 16.3721 7.62327 16.3721 7.33654C16.3721 7.04981 16.6007 6.81732 16.8827 6.81732H17.9037C18.1857 6.81732 18.4143 7.04981 18.4143 7.33654C18.4143 7.62327 18.1857 7.85576 17.9037 7.85576ZM20.6277 7.85576H19.6066C19.3246 7.85576 19.096 7.62327 19.096 7.33654C19.096 7.04981 19.3247 6.81732 19.6066 6.81732H20.6277C20.9097 6.81732 21.1383 7.04981 21.1383 7.33654C21.1383 7.62327 20.9096 7.85576 20.6277 7.85576Z" fill="#A6A6A8"/>
<path style="fill: black;" d="M18.0865 16.2591C17.7851 16.4477 17.4102 16.6823 16.7124 16.6823C16.0147 16.6823 15.6397 16.4477 15.3384 16.2591C15.0887 16.1028 14.9083 15.99 14.4996 15.99C14.0909 15.99 13.9105 16.1029 13.6608 16.2591C13.3595 16.4476 12.9846 16.6823 12.2869 16.6823C11.5891 16.6823 11.2142 16.4477 10.9129 16.2591C10.8015 16.1894 10.7038 16.1285 10.5938 16.0822C10.7285 18.154 12.4288 19.7977 14.4997 19.7977C16.5707 19.7977 18.271 18.154 18.4057 16.0822C18.2956 16.1285 18.1979 16.1894 18.0865 16.2591Z" fill="#A6A6A8"/>
<path style="fill: black;" d="M14.5016 11.8364C12.6121 11.8364 11.031 13.2045 10.666 15.0176C11.0111 15.1008 11.2475 15.2483 11.45 15.375C11.6997 15.5312 11.8801 15.6441 12.2887 15.6441C12.6973 15.6441 12.8777 15.5312 13.1274 15.375C13.4288 15.1864 13.8037 14.9518 14.5014 14.9518C15.1992 14.9518 15.5742 15.1864 15.8754 15.375C16.1251 15.5313 16.3056 15.6441 16.7143 15.6441C17.1229 15.6441 17.3034 15.5312 17.5531 15.375C17.7555 15.2482 17.992 15.1008 18.3371 15.0177C17.9721 13.2045 16.391 11.8364 14.5016 11.8364Z" fill="#A6A6A8"/>
<path style="fill: black;" d="M6.5 9.6731V21.4423C6.5 22.3012 7.1872 22.9999 8.03192 22.9999H20.9681C21.8128 22.9999 22.5 22.3012 22.5 21.4423V9.6731H6.5ZM14.5 20.8365C11.7782 20.8365 9.56385 18.5849 9.56385 15.8173C9.56385 15.6826 9.56927 15.5491 9.57954 15.4171C9.57961 15.4164 9.57965 15.4158 9.57972 15.4152C9.78187 12.8349 11.9113 10.7981 14.5 10.7981C17.0887 10.7981 19.2182 12.8349 19.4203 15.4152C19.4204 15.4158 19.4204 15.4164 19.4205 15.4171C19.4308 15.5491 19.4362 15.6826 19.4362 15.8173C19.4362 18.5849 17.2218 20.8365 14.5 20.8365Z" fill="#A6A6A8"/>
</svg>
