<svg width="16" height="16" viewBox="0 0 16 16" fill="none" xmlns="http://www.w3.org/2000/svg">
<path d="M13.7467 5.63332C13.0467 2.55332 10.3601 1.16666 8.00006 1.16666C8.00006 1.16666 8.00006 1.16666 7.9934 1.16666C5.64006 1.16666 2.94673 2.54666 2.24673 5.62666C1.46673 9.06666 3.5734 11.98 5.48006 13.8133C6.18673 14.4933 7.0934 14.8333 8.00006 14.8333C8.90673 14.8333 9.8134 14.4933 10.5134 13.8133C12.4201 11.98 14.5267 9.07332 13.7467 5.63332ZM8.00006 8.97332C6.84006 8.97332 5.90006 8.03332 5.90006 6.87332C5.90006 5.71332 6.84006 4.77332 8.00006 4.77332C9.16006 4.77332 10.1001 5.71332 10.1001 6.87332C10.1001 8.03332 9.16006 8.97332 8.00006 8.97332Z" fill="black"/>
</svg>
