<svg width="17" height="16" viewBox="0 0 17 16" fill="none" xmlns="http://www.w3.org/2000/svg">
<path d="M2.02637 5.18667V11.6733C2.02637 12.94 2.92637 13.46 4.0197 12.8333L5.58637 11.94C5.92637 11.7467 6.49303 11.7267 6.84637 11.9067L10.3464 13.66C10.6997 13.8333 11.2664 13.82 11.6064 13.6267L14.493 11.9733C14.8597 11.76 15.1664 11.24 15.1664 10.8133V4.32667C15.1664 3.06 14.2664 2.54 13.173 3.16667L11.6064 4.06C11.2664 4.25334 10.6997 4.27334 10.3464 4.09334L6.84637 2.34667C6.49303 2.17334 5.92637 2.18667 5.58637 2.38L2.6997 4.03334C2.32637 4.24667 2.02637 4.76667 2.02637 5.18667Z" stroke="#010E2C" stroke-width="1.5" stroke-linecap="round" stroke-linejoin="round"/>
<path d="M6.20703 2.66666V11.3333" stroke="#010E2C" stroke-width="1.5" stroke-linecap="round" stroke-linejoin="round"/>
<path d="M10.9863 4.41333V13.3333" stroke="#010E2C" stroke-width="1.5" stroke-linecap="round" stroke-linejoin="round"/>
</svg>
