<svg width="28" height="28" viewBox="0 0 28 28" fill="none" xmlns="http://www.w3.org/2000/svg">
<path d="M7.89258 11.2499H16.714V17.7499H7.89258V11.2499Z" fill="#A6A6A8"/>
<path d="M22.1429 7.99988H5.85714C5.49721 7.99988 5.15201 8.13684 4.8975 8.38064C4.64298 8.62444 4.5 8.9551 4.5 9.29988V19.6999C4.5 20.0447 4.64298 20.3753 4.8975 20.6191C5.15201 20.8629 5.49721 20.9999 5.85714 20.9999H22.1429C22.5028 20.9999 22.848 20.8629 23.1025 20.6191C23.357 20.3753 23.5 20.0447 23.5 19.6999V9.29988C23.5 8.9551 23.357 8.62444 23.1025 8.38064C22.848 8.13684 22.5028 7.99988 22.1429 7.99988ZM18.0714 18.3999C18.0714 18.5723 17.9999 18.7376 17.8727 18.8595C17.7454 18.9814 17.5728 19.0499 17.3929 19.0499H7.21429C7.03432 19.0499 6.86172 18.9814 6.73446 18.8595C6.60721 18.7376 6.53571 18.5723 6.53571 18.3999V10.5999C6.53571 10.4275 6.60721 10.2622 6.73446 10.1403C6.86172 10.0184 7.03432 9.94988 7.21429 9.94988H17.3929C17.5728 9.94988 17.7454 10.0184 17.8727 10.1403C17.9999 10.2622 18.0714 10.4275 18.0714 10.5999V18.3999ZM20.7857 19.0499H19.4286C19.2486 19.0499 19.076 18.9814 18.9487 18.8595C18.8215 18.7376 18.75 18.5723 18.75 18.3999C18.75 18.2275 18.8215 18.0622 18.9487 17.9403C19.076 17.8184 19.2486 17.7499 19.4286 17.7499H20.7857C20.9657 17.7499 21.1383 17.8184 21.2655 17.9403C21.3928 18.0622 21.4643 18.2275 21.4643 18.3999C21.4643 18.5723 21.3928 18.7376 21.2655 18.8595C21.1383 18.9814 20.9657 19.0499 20.7857 19.0499ZM20.1071 15.7999C19.8387 15.7999 19.5763 15.7236 19.3532 15.5808C19.13 15.4379 18.956 15.2349 18.8533 14.9974C18.7506 14.7598 18.7237 14.4984 18.7761 14.2463C18.8284 13.9941 18.9577 13.7624 19.1475 13.5806C19.3373 13.3988 19.5791 13.275 19.8424 13.2249C20.1056 13.1747 20.3785 13.2004 20.6265 13.2988C20.8745 13.3972 21.0864 13.5639 21.2356 13.7776C21.3847 13.9914 21.4643 14.2428 21.4643 14.4999C21.4643 14.8447 21.3213 15.1753 21.0668 15.4191C20.8123 15.6629 20.4671 15.7999 20.1071 15.7999ZM20.1071 12.5499C19.8387 12.5499 19.5763 12.4736 19.3532 12.3308C19.13 12.1879 18.956 11.9849 18.8533 11.7474C18.7506 11.5098 18.7237 11.2484 18.7761 10.9963C18.8284 10.7441 18.9577 10.5124 19.1475 10.3306C19.3373 10.1488 19.5791 10.025 19.8424 9.97486C20.1056 9.9247 20.3785 9.95044 20.6265 10.0488C20.8745 10.1472 21.0864 10.3139 21.2356 10.5276C21.3847 10.7414 21.4643 10.9928 21.4643 11.2499C21.4643 11.5947 21.3213 11.9253 21.0668 12.1691C20.8123 12.4129 20.4671 12.5499 20.1071 12.5499Z" fill="#A6A6A8"/>
</svg>
