<svg width="28" height="28" viewBox="0 0 28 28" fill="none" xmlns="http://www.w3.org/2000/svg">
<path d="M19.3345 11.3333C20.8072 11.3333 22.001 10.1395 22.001 8.66678C22.001 7.19409 20.8072 6.00024 19.3345 6.00024C17.8618 6.00024 16.668 7.19409 16.668 8.66678C16.668 10.1395 17.8618 11.3333 19.3345 11.3333Z" fill="#A6A6A8"/>
<path d="M17.3331 12.6669L15.9998 15.3336L12.6664 8.66699L6 22.0001H9.9999V21.3335C9.9999 19.4923 11.4927 18.0002 13.3332 18.0002H17.3331C18.2575 18.0002 19.0289 17.3688 19.2575 16.5158L17.3331 12.6669Z" fill="#A6A6A8"/>
<path d="M19.9946 17.9893C19.3872 18.8012 18.4262 19.3338 17.3338 19.3338H13.3339C12.2297 19.3338 11.334 20.229 11.334 21.3338V22.0004H22.0003L19.9946 17.9893Z" fill="#A6A6A8"/>
</svg>
