<svg width="28" height="28" viewBox="0 0 28 28" fill="none" xmlns="http://www.w3.org/2000/svg">
<path style="fill: black;" d="M15.6736 15.2593C15.6736 14.8296 15.0792 13.5419 14.4979 12.4375C13.9167 13.5419 13.3223 14.8296 13.3223 15.2593C13.3223 15.8993 13.8497 16.4199 14.4979 16.4199C15.1462 16.4199 15.6736 15.8993 15.6736 15.2593Z" fill="#A6A6A8"/>
<path style="fill: black;" d="M14.0559 11.1347C14.1459 10.9766 14.3153 10.8786 14.499 10.8786C14.6828 10.8786 14.8522 10.9766 14.9422 11.1347C14.9597 11.1655 15.3754 11.8977 15.7981 12.7562C16.5987 14.3819 16.6912 14.9633 16.6912 15.2593C16.6912 15.3831 16.68 15.5043 16.6597 15.6225C17.3571 15.0247 17.7988 14.1435 17.7988 13.1624C17.7988 11.9223 16.1655 8.56308 14.9493 6.26917C14.7591 5.91028 14.239 5.91028 14.0487 6.26917C12.8325 8.56308 11.1992 11.9223 11.1992 13.1624C11.1992 14.1435 11.6409 15.0247 12.3383 15.6225C12.318 15.5043 12.3068 15.3831 12.3068 15.2593C12.3068 14.9634 12.3994 14.3819 13.1999 12.7562C13.6227 11.8977 14.0384 11.1655 14.0559 11.1347Z" fill="#A6A6A8"/>
<path style="fill: black;" d="M18.4884 20.6968H8.66675C8.02236 20.6968 7.5 21.2125 7.5 21.8486C7.5 22.4843 8.0224 23.0001 8.66675 23.0001H18.4884C18.2739 22.6666 18.1491 22.2717 18.1491 21.8484C18.1491 21.4251 18.2739 21.0302 18.4884 20.6968Z" fill="#A6A6A8"/>
<path style="fill: black;" d="M20.3345 22.9998C20.9788 22.9998 21.5011 22.4842 21.5011 21.8482C21.5011 21.2121 20.9788 20.6965 20.3345 20.6965C19.6903 20.6965 19.168 21.2121 19.168 21.8482C19.168 22.4842 19.6903 22.9998 20.3345 22.9998Z" fill="#A6A6A8"/>
<path style="fill: black;" d="M11.6758 19.6932H19.1644C19.8088 19.6932 20.3312 19.1775 20.3312 18.5413C20.3312 17.9056 19.8088 17.3899 19.1644 17.3899H11.6758C11.8902 17.7233 12.015 18.1182 12.015 18.5415C12.015 18.9649 11.8902 19.3598 11.6758 19.6932Z" fill="#A6A6A8"/>
<path style="fill: black;" d="M9.8326 19.6932C10.4769 19.6932 10.9992 19.1776 10.9992 18.5415C10.9992 17.9055 10.4769 17.3899 9.8326 17.3899C9.18831 17.3899 8.66602 17.9055 8.66602 18.5415C8.66602 19.1776 9.18831 19.6932 9.8326 19.6932Z" fill="#A6A6A8"/>
</svg>
