<svg width="28" height="28" viewBox="0 0 28 28" fill="none" xmlns="http://www.w3.org/2000/svg">
<path d="M14.4011 13.4498C12.7598 11.0509 16.0228 6.80229 16.0558 6.75984L16.6479 6H11.6248C11.622 6.00317 10.2839 6.9616 9.29412 8.60436C9.29412 8.32373 9.29412 6.27304 9.29412 6C8.96339 6 6.31617 6 6 6V6.12025C6 7.09346 6.78889 7.88235 7.7621 7.88235H8.35294V11.3891C8.27122 12.4865 8.53635 13.5651 9.15074 14.5893C10.6917 17.158 7.5451 21.1971 7.51332 21.2374L6.90996 22H16.2229L16.3293 21.6765C18.0779 16.3649 15.8176 15.5203 14.4011 13.4498Z" fill="#A6A6A8"/>
<path d="M19.1769 8.82349C18.8608 8.82349 16.2135 8.82349 15.8828 8.82349V13.5294H16.824V10.7058H17.4148C18.388 10.7058 19.1769 9.91695 19.1769 8.94374V8.82349Z" fill="#A6A6A8"/>
<path d="M18.707 17.2939V21.9998H19.6482V19.1763H20.239C21.2122 19.1763 22.0011 18.3874 22.0011 17.4142V17.2939C21.685 17.2939 19.0378 17.2939 18.707 17.2939Z" fill="#A6A6A8"/>
</svg>
