<svg width="15" height="14" viewBox="0 0 15 14" fill="none" xmlns="http://www.w3.org/2000/svg">
<path d="M8.32071 5.5271L8.31839 5.53333H4.81878C4.31078 5.53333 3.83792 5.68626 3.44348 5.94829H2.32686C1.86923 5.94829 1.49692 5.57599 1.49692 5.11836C1.49692 4.66074 1.86923 4.28843 2.32686 4.28843H3.57176C3.80093 4.28843 3.98672 4.10263 3.98672 3.87346C3.98672 3.64429 3.80093 3.4585 3.57176 3.4585H2.32686C1.41161 3.4585 0.666992 4.20311 0.666992 5.11836C0.666992 6.03361 1.41161 6.77823 2.32686 6.77823H2.66201C2.449 7.14522 2.32686 7.57123 2.32686 8.02526V13.224C2.32686 13.4532 2.51265 13.639 2.74182 13.639H4.40169C4.63086 13.639 4.81665 13.4532 4.81665 13.224V9.72194L8.60668 10.0624V13.2517C8.60668 13.4809 8.79247 13.6667 9.02165 13.6667H10.6815C10.9107 13.6667 11.0965 13.4809 11.0965 13.2517V9.30913L11.6078 6.75247L8.32071 5.5271Z" fill="#000000"/>
<path d="M14.4163 3.04358H13.1641C13.0967 2.41014 12.5606 1.90933 11.9002 1.90933H11.2039L10.9498 0.664435C10.8667 0.257243 10.2995 0.212924 10.1543 0.602633L8.61035 4.74936L11.7727 5.92823L11.8517 5.53337H12.7564C13.9005 5.53337 14.8312 4.6026 14.8312 3.45854C14.8312 3.22937 14.6454 3.04358 14.4163 3.04358Z" fill="#000"/>
</svg>
