<svg width="28" height="28" viewBox="0 0 28 28" fill="none" xmlns="http://www.w3.org/2000/svg">
<path d="M21.5309 14.5036H21.0384C20.8238 11.2726 18.4236 8.6226 15.3025 8.04913C15.3863 7.86911 15.4365 7.61534 15.4365 7.40395C15.4365 6.62845 14.8056 5.99756 14.0301 5.99756C13.2546 5.99756 12.6237 6.62845 12.6237 7.40395C12.6237 7.61534 12.6739 7.86911 12.7578 8.04913C9.6367 8.6226 7.17393 11.2726 6.95942 14.5036H6.46686C6.20774 14.5036 5.99805 14.7008 5.99805 14.9599C5.99805 15.219 6.20771 15.4287 6.46686 15.4287H21.5309C21.79 15.4287 21.9997 15.219 21.9997 14.9599C21.9997 14.7008 21.79 14.5036 21.5309 14.5036ZM14.0301 7.92794C13.7715 7.92794 13.5613 7.66263 13.5613 7.40395C13.5613 7.14528 13.7715 6.93515 14.0301 6.93515C14.2888 6.93515 14.4989 7.14528 14.4989 7.40395C14.4989 7.66263 14.2888 7.92794 14.0301 7.92794Z" fill="#A6A6A8"/>
<path d="M7.40436 17.3037C7.1418 17.3037 6.93555 17.51 6.93555 17.7725V21.5302C6.93555 21.7927 7.1418 21.999 7.40436 21.999H8.81075V17.3037H7.40436Z" fill="#A6A6A8"/>
<path d="M20.5379 16.9021C20.1717 16.5359 19.5784 16.5359 19.2121 16.9021L16.5275 19.5742C16.1912 19.9105 15.7487 20.0975 15.2763 20.1162H13.9922C13.7351 20.1162 13.5234 19.9249 13.5234 19.6474C13.5234 19.3699 13.7351 19.1786 13.9922 19.1786C14.5845 19.1786 14.4748 19.1786 15.4361 19.1786C15.9518 19.1786 16.3737 18.7567 16.3737 18.241C16.3737 17.7254 15.9518 17.316 15.4361 17.316H14.4985C14.334 17.316 14.2099 17.3218 14.0766 17.2034C13.9104 17.0579 13.7298 16.8764 13.5609 16.769C12.6239 16.1076 11.2688 15.947 10.1387 16.5375C9.89856 16.6629 9.74805 16.9117 9.74805 17.1826V21.9988C15.7111 22.0068 15.1655 21.9987 15.2013 21.9988C16.203 21.9988 17.1451 21.6088 17.8533 20.9001L20.5379 18.2155C20.9042 17.8492 20.9042 17.2684 20.5379 16.9021Z" fill="#A6A6A8"/>
</svg>
