<svg width="28" height="28" viewBox="0 0 28 28" fill="none" xmlns="http://www.w3.org/2000/svg">
<path d="M16.6243 5C15.3877 5.0016 14.1979 5.47254 13.2951 6.31764C12.3924 7.16274 11.8441 8.319 11.7611 9.55278C10.7676 9.69577 9.83572 10.1198 9.07523 10.7748C8.31473 11.4299 7.75734 12.2887 7.46875 13.25H17.5298C17.2426 12.2932 16.689 11.4378 15.9338 10.7838C15.1786 10.1299 14.2528 9.70429 13.2648 9.55681C13.3476 8.69404 13.7593 7.89622 14.4144 7.32869C15.0695 6.76115 15.9178 6.4674 16.7836 6.5083C17.6494 6.54921 18.4662 6.92163 19.0649 7.54841C19.6636 8.17518 19.9981 9.00826 19.9993 9.875V23H21.4993V9.875C21.4979 8.58252 20.9838 7.34339 20.0698 6.42947C19.1559 5.51555 17.9168 5.00146 16.6243 5Z" fill="#A6A6A8"/>
<path d="M6.5 14H18.5V15.5H6.5V14Z" fill="#A6A6A8"/>
<path d="M12.5 22.25C12.9142 22.25 13.25 21.9142 13.25 21.5C13.25 21.0858 12.9142 20.75 12.5 20.75C12.0858 20.75 11.75 21.0858 11.75 21.5C11.75 21.9142 12.0858 22.25 12.5 22.25Z" fill="#A6A6A8"/>
<path d="M12.5 20C12.9142 20 13.25 19.6642 13.25 19.25C13.25 18.8358 12.9142 18.5 12.5 18.5C12.0858 18.5 11.75 18.8358 11.75 19.25C11.75 19.6642 12.0858 20 12.5 20Z" fill="#A6A6A8"/>
<path d="M15.5 22.25C15.9142 22.25 16.25 21.9142 16.25 21.5C16.25 21.0858 15.9142 20.75 15.5 20.75C15.0858 20.75 14.75 21.0858 14.75 21.5C14.75 21.9142 15.0858 22.25 15.5 22.25Z" fill="#A6A6A8"/>
<path d="M15.5 20C15.9142 20 16.25 19.6642 16.25 19.25C16.25 18.8358 15.9142 18.5 15.5 18.5C15.0858 18.5 14.75 18.8358 14.75 19.25C14.75 19.6642 15.0858 20 15.5 20Z" fill="#A6A6A8"/>
<path d="M9.5 22.25C9.91422 22.25 10.25 21.9142 10.25 21.5C10.25 21.0858 9.91422 20.75 9.5 20.75C9.08579 20.75 8.75 21.0858 8.75 21.5C8.75 21.9142 9.08579 22.25 9.5 22.25Z" fill="#A6A6A8"/>
<path d="M9.5 20C9.91422 20 10.25 19.6642 10.25 19.25C10.25 18.8358 9.91422 18.5 9.5 18.5C9.08579 18.5 8.75 18.8358 8.75 19.25C8.75 19.6642 9.08579 20 9.5 20Z" fill="#A6A6A8"/>
<path d="M12.5 17.75C12.9142 17.75 13.25 17.4142 13.25 17C13.25 16.5858 12.9142 16.25 12.5 16.25C12.0858 16.25 11.75 16.5858 11.75 17C11.75 17.4142 12.0858 17.75 12.5 17.75Z" fill="#A6A6A8"/>
<path d="M15.5 17.75C15.9142 17.75 16.25 17.4142 16.25 17C16.25 16.5858 15.9142 16.25 15.5 16.25C15.0858 16.25 14.75 16.5858 14.75 17C14.75 17.4142 15.0858 17.75 15.5 17.75Z" fill="#A6A6A8"/>
<path d="M9.5 17.75C9.91422 17.75 10.25 17.4142 10.25 17C10.25 16.5858 9.91422 16.25 9.5 16.25C9.08579 16.25 8.75 16.5858 8.75 17C8.75 17.4142 9.08579 17.75 9.5 17.75Z" fill="#A6A6A8"/>
</svg>
