<svg width="28" height="28" viewBox="0 0 28 28" fill="none" xmlns="http://www.w3.org/2000/svg">
<path d="M12.8322 8.1819C12.0382 8.47451 11.6343 9.34674 11.9318 10.1293C12.2293 10.9118 13.1149 11.3092 13.9089 11.0166C14.7044 10.7233 15.1061 9.85175 14.8086 9.06885C14.5118 8.28595 13.6276 7.88888 12.8322 8.1819Z" fill="#A6A6A8"/>
<path d="M21.3698 17.4702C20.9848 17.4419 20.6634 17.7181 20.6331 18.0892L20.5169 19.5342L19.261 20.3645L17.3774 17.593C17.189 17.3155 16.8734 17.1476 16.5345 17.1442L14.5581 17.1254V16.3584C14.6638 16.4206 14.7841 16.4568 14.9084 16.4568C14.9772 16.4568 15.0461 16.4466 15.1143 16.4255L17.2439 15.7645C17.604 15.6525 17.8045 15.2739 17.6909 14.9186C17.5774 14.5633 17.1951 14.3658 16.832 14.4784L15.2005 14.9848L14.5595 14.0063V13.4319C14.5602 12.6894 13.959 12.0869 13.1959 12.0869C11.9496 12.0869 11.7958 13.0814 11.7958 13.438C11.7958 13.438 11.7949 17.941 11.7949 18.1106C11.7949 18.6693 12.2449 19.1263 12.8115 19.1319L15.9732 19.1619L17.5566 21.4919L15.6296 22.7663C15.3161 22.9738 15.2325 23.3925 15.4431 23.7018C15.5748 23.8956 15.7914 24.0003 16.0119 24.0003C16.143 24.0003 16.2758 23.9634 16.3929 23.8858L21.555 20.4723C21.7281 20.3577 21.839 20.171 21.8558 19.9659L21.9981 18.1959C22.0276 17.8245 21.7467 17.4998 21.3698 17.4702Z" fill="#A6A6A8"/>
<path d="M18.1525 4.43323C18.0175 4.08593 17.6226 3.91137 17.2682 4.04541L6.43943 8.13983C6.08649 8.27313 5.91012 8.66322 6.04568 9.01096C6.15003 9.27895 6.40937 9.44389 6.68469 9.44389C6.76623 9.44389 6.84908 9.42941 6.92999 9.39878L9.76531 8.32684V18.3264C9.76531 19.9366 11.0955 21.247 12.7304 21.247H14.9883C15.3666 21.247 15.6728 20.9451 15.6728 20.5727C15.6728 20.2004 15.3666 19.8985 14.9883 19.8985H12.7304C11.8501 19.8985 11.1343 19.1932 11.1343 18.3264V7.80925L17.7587 5.30444C18.1117 5.1711 18.2882 4.78097 18.1525 4.43323Z" fill="#A6A6A8"/>
</svg>
