<svg width="28" height="28" viewBox="0 0 28 28" fill="none" xmlns="http://www.w3.org/2000/svg">
<path d="M20.7814 19.5124H20.5077V12.667C20.2527 12.5569 20.0352 12.3742 19.8832 12.1446C19.6305 12.5264 19.1978 12.7794 18.7066 12.7794C18.2154 12.7794 17.7826 12.5264 17.53 12.1446C17.2774 12.5264 16.8447 12.7794 16.3535 12.7794C15.8622 12.7794 15.4295 12.5264 15.1769 12.1446C14.9243 12.5264 14.4915 12.7794 14.0003 12.7794C13.5091 12.7794 13.0764 12.5264 12.8238 12.1446C12.5711 12.5264 12.1407 12.7794 11.6495 12.7794C11.156 12.7794 10.7209 12.5241 10.4683 12.1375C10.2133 12.5147 9.78528 12.763 9.29641 12.763C8.8052 12.763 8.37247 12.51 8.11984 12.1282C7.9678 12.3578 7.75027 12.5428 7.49297 12.6506V19.5124H7.21929C6.93626 19.5124 6.70703 19.7419 6.70703 20.0254V21H21.2936V20.0254C21.2936 19.7419 21.0644 19.5124 20.7814 19.5124ZM12.9337 19.5124H9.08589V14.759C9.08589 14.4404 9.34319 14.1804 9.66365 14.1804H12.3559C12.6741 14.1804 12.9337 14.4404 12.9337 14.759V19.5124ZM18.6481 17.2774C18.6481 17.4836 18.482 17.6499 18.2762 17.6499H15.1395C14.9336 17.6499 14.7652 17.4836 14.7652 17.2774V14.4357C14.7652 14.2296 14.9336 14.0632 15.1395 14.0632H18.2762C18.482 14.0632 18.6481 14.2296 18.6481 14.4357V17.2774Z" fill="#A6A6A8"/>
<path d="M20.0465 10.7177H21.8639L21.1458 9.19495C21.0686 9.03096 20.9049 8.92554 20.7225 8.92554H19.4453L20.0465 10.7177Z" fill="#A6A6A8"/>
<path d="M8.55534 8.90942H7.2782C7.09809 8.90942 6.93201 9.01485 6.85482 9.17883L6.13672 10.7016H7.95186L8.55534 8.90942Z" fill="#A6A6A8"/>
<path d="M20.1172 11.186V11.3664C20.1172 11.8865 20.5382 12.3105 21.0598 12.3105C21.5791 12.3105 22.0002 11.8865 22.0002 11.3664V11.186H20.1172Z" fill="#A6A6A8"/>
<path d="M18.7063 12.3105C19.2256 12.3105 19.649 11.8865 19.649 11.3664V11.186H17.7637V11.3664C17.7637 11.8865 18.187 12.3105 18.7063 12.3105Z" fill="#A6A6A8"/>
<path d="M16.9716 9.37534L16.8804 8.92554H15.2734L15.3951 10.7177H17.243L16.9716 9.37534Z" fill="#A6A6A8"/>
<path d="M8.35352 11.35C8.35352 11.8701 8.77689 12.2941 9.29617 12.2941C9.81545 12.2941 10.2388 11.8701 10.2388 11.35V11.186H8.35352V11.35Z" fill="#A6A6A8"/>
<path d="M18.9546 8.92554H17.3594L17.6307 10.2679L17.7219 10.7177H19.5558L18.9546 8.92554Z" fill="#A6A6A8"/>
<path d="M10.707 11.3664C10.707 11.8865 11.1281 12.3105 11.6497 12.3105C12.169 12.3105 12.59 11.8865 12.59 11.3664V11.186H10.707V11.3664Z" fill="#A6A6A8"/>
<path d="M7.88531 11.3503V11.1699H6V11.3503C6 11.8704 6.42338 12.2944 6.94265 12.2944C7.46193 12.2944 7.88531 11.8704 7.88531 11.3503Z" fill="#A6A6A8"/>
<path d="M10.6406 8.92554H9.04764L8.45117 10.7013H10.2827L10.6406 8.92554Z" fill="#A6A6A8"/>
<path d="M13.1959 8.92554L13.0742 10.7177H14.9268L14.8075 8.92554H13.1959Z" fill="#A6A6A8"/>
<path d="M16.3528 12.3105C16.8721 12.3105 17.2955 11.8865 17.2955 11.3664V11.186H15.4102V11.3664C15.4102 11.8865 15.8335 12.3105 16.3528 12.3105Z" fill="#A6A6A8"/>
<path d="M12.725 8.92554H11.1204L10.7578 10.7177H12.6057L12.725 8.92554Z" fill="#A6A6A8"/>
<path d="M13.0566 11.3664C13.0566 11.8865 13.48 12.3105 13.9993 12.3105C14.5186 12.3105 14.942 11.8865 14.942 11.3664V11.186H13.0566V11.3664Z" fill="#A6A6A8"/>
<path d="M9.20207 8.45716H20.5069V7.98159C20.5069 7.44043 20.0695 7 19.5292 7H8.47227C7.93194 7 7.49219 7.44043 7.49219 7.98159V8.44076H9.20674L9.20207 8.45716Z" fill="#A6A6A8"/>
</svg>
