<svg width="28" height="28" viewBox="0 0 28 28" fill="none" xmlns="http://www.w3.org/2000/svg">
<g clip-path="url(#clip0_2111_5716)">
<path d="M21.8749 14.0016C21.7272 14.0016 21.5857 13.9439 21.4813 13.8411C19.6165 12.0052 17.1372 10.9941 14.5 10.9941C11.8628 10.9941 9.38352 12.0052 7.51874 13.8411C7.41435 13.9439 7.27278 14.0017 7.12516 14.0017C6.97754 14.0017 6.83596 13.9439 6.73158 13.8411L5.16304 12.2969C4.94565 12.0829 4.94565 11.7359 5.16304 11.5219C6.42335 10.2811 7.89306 9.32029 9.5314 8.6662C11.1136 8.0345 12.7853 7.71423 14.5 7.71423C16.2147 7.71423 17.8864 8.03454 19.4686 8.6662C21.1069 9.32029 22.5767 10.2811 23.837 11.5219C24.0543 11.7359 24.0543 12.0829 23.837 12.2969L22.2685 13.8411C22.1641 13.9439 22.0225 14.0016 21.8749 14.0016Z" fill="#A6A6A8"/>
<path d="M18.6246 17.189C18.4769 17.189 18.3353 17.1312 18.231 17.0284C17.2341 16.047 15.9087 15.5064 14.4988 15.5064C13.089 15.5064 11.7636 16.047 10.7667 17.0284C10.6623 17.1312 10.5208 17.189 10.3731 17.189C10.2255 17.189 10.0839 17.1312 9.97952 17.0284L8.41105 15.4842C8.1937 15.2702 8.1937 14.9232 8.41109 14.7092C10.0372 13.1082 12.1992 12.2266 14.4989 12.2266C16.7985 12.2266 18.9606 13.1082 20.5867 14.7092C20.804 14.9232 20.804 15.2702 20.5867 15.4842L19.0182 17.0284C18.9138 17.1312 18.7722 17.189 18.6246 17.189Z" fill="#A6A6A8"/>
<path d="M14.5006 21.2858C13.2283 21.2858 12.1934 20.2769 12.1934 19.0368C12.1934 17.7967 13.2284 16.7878 14.5006 16.7878C15.7728 16.7878 16.8078 17.7967 16.8078 19.0368C16.8078 20.2769 15.7728 21.2858 14.5006 21.2858Z" fill="#A6A6A8"/>
</g>
<defs>
<clipPath id="clip0_2111_5716">
<rect width="28" height="28" fill="white"/>
</clipPath>
</defs>
</svg>
