<svg width="28" height="28" viewBox="0 0 28 28" fill="none" xmlns="http://www.w3.org/2000/svg">
<path d="M8.46136 22.7753H8.35192V7.52733C8.35192 7.2361 8.11581 7 7.82459 7C7.53336 7 7.29726 7.2361 7.29726 7.52733V8.06088C6.0162 8.1467 5 9.21563 5 10.5181C5 10.8093 5.2361 11.0454 5.52733 11.0454C5.81856 11.0454 6.05466 10.8093 6.05466 10.5181C6.05466 9.79752 6.59855 9.20195 7.29726 9.11944V22.7753H7.18782C6.89659 22.7753 6.66049 23.0114 6.66049 23.3026C6.66049 23.5938 6.89659 23.8299 7.18782 23.8299H7.29726V24.4722C7.29726 24.7634 7.53336 24.9995 7.82459 24.9995C8.11581 24.9995 8.35192 24.7634 8.35192 24.4722V23.8299H8.46136C8.75258 23.8299 8.98869 23.5938 8.98869 23.3026C8.98869 23.0114 8.75258 22.7753 8.46136 22.7753Z" fill="#A6A6A8"/>
<path d="M23.0004 21.4814C23.0004 21.1902 22.7643 20.9541 22.4731 20.9541C22.1819 20.9541 21.9458 21.1902 21.9458 21.4814C21.9458 22.202 21.4019 22.7976 20.7031 22.8801V9.22424H20.8126C21.1038 9.22424 21.3399 8.98814 21.3399 8.69691C21.3399 8.40568 21.1038 8.16958 20.8126 8.16958H20.7031V7.52733C20.7031 7.2361 20.467 7 20.1758 7C19.8846 7 19.6485 7.2361 19.6485 7.52733V8.16958H19.539C19.2478 8.16958 19.0117 8.40568 19.0117 8.69691C19.0117 8.98814 19.2478 9.22424 19.539 9.22424H19.6485V24.4722C19.6485 24.7634 19.8846 24.9995 20.1758 24.9995C20.467 24.9995 20.7031 24.7634 20.7031 24.4722V23.9386C21.9842 23.8528 23.0004 22.7839 23.0004 21.4814Z" fill="#A6A6A8"/>
<path d="M10.1309 18.3318V23.3608C10.1309 24.2644 10.866 24.9996 11.7696 24.9996C12.6732 24.9996 13.4083 24.2644 13.4083 23.3608V18.3318H10.1309Z" fill="#A6A6A8"/>
<path d="M13.4083 13.6678V8.63873C13.4083 7.73513 12.6732 7 11.7696 7C10.866 7 10.1309 7.73513 10.1309 8.63873V13.6678H13.4083Z" fill="#A6A6A8"/>
<path d="M10.1309 14.7224H13.4084V17.2771H10.1309V14.7224Z" fill="#A6A6A8"/>
<path d="M14.5918 14.7224H17.8693V17.2771H14.5918V14.7224Z" fill="#A6A6A8"/>
<path d="M17.8693 13.6678V8.65729C17.8693 7.74343 17.1341 7 16.2305 7C15.3269 7 14.5918 7.74343 14.5918 8.65729V13.6678H17.8693Z" fill="#A6A6A8"/>
<path d="M14.5918 18.3318V23.3423C14.5918 24.2561 15.3269 24.9996 16.2305 24.9996C17.1341 24.9996 17.8693 24.2561 17.8693 23.3423V18.3318H14.5918Z" fill="#A6A6A8"/>
</svg>
