<svg width="28" height="28" viewBox="0 0 28 28" fill="none" xmlns="http://www.w3.org/2000/svg">
<path d="M9.13486 11.2567C9.63599 10.3714 10.3716 9.6358 11.2569 9.13467L8.83464 8.23589C8.66399 8.17255 8.47211 8.21451 8.34342 8.3432C8.21471 8.47189 8.17283 8.66376 8.23611 8.83442L9.13486 11.2567Z" fill="#A6A6A8"/>
<path d="M8.41313 14.0001C8.41313 13.4808 8.48459 12.9779 8.61778 12.5005L6.27147 13.5768C6.10603 13.6527 6 13.8181 6 14.0001C6 14.1821 6.10603 14.3474 6.27147 14.4233L8.61781 15.4996C8.48462 15.0222 8.41313 14.5193 8.41313 14.0001Z" fill="#A6A6A8"/>
<path d="M13.9996 8.41313C14.5189 8.41313 15.0217 8.48459 15.4991 8.61778L14.4228 6.27147C14.3469 6.10603 14.1816 6 13.9996 6C13.8176 6 13.6522 6.10603 13.5763 6.27147L12.5 8.61781C12.9774 8.48459 13.4802 8.41313 13.9996 8.41313Z" fill="#A6A6A8"/>
<path d="M18.8662 11.2567L19.765 8.83439C19.8282 8.66376 19.7864 8.47185 19.6576 8.34317C19.5289 8.21445 19.337 8.1726 19.1664 8.23585L16.7441 9.1346C17.6294 9.63576 18.365 10.3714 18.8662 11.2567Z" fill="#A6A6A8"/>
<path d="M13.9996 19.5868C13.4802 19.5868 12.9774 19.5153 12.5 19.3821L13.5763 21.7285C13.6522 21.8939 13.8176 21.9999 13.9996 21.9999C14.1816 21.9999 14.3469 21.8939 14.4228 21.7284L15.4992 19.3821C15.0217 19.5153 14.5189 19.5868 13.9996 19.5868Z" fill="#A6A6A8"/>
<path d="M9.13486 16.7434L8.23611 19.1657C8.17283 19.3363 8.21471 19.5282 8.34342 19.6569C8.43233 19.7458 8.55139 19.7933 8.67277 19.7933C8.72708 19.7933 8.78189 19.7838 8.83464 19.7642L11.2569 18.8655C10.3716 18.3643 9.63602 17.6287 9.13486 16.7434Z" fill="#A6A6A8"/>
<path d="M21.7292 13.5769L19.3828 12.5005C19.516 12.9779 19.5875 13.4808 19.5875 14.0001C19.5875 14.5193 19.516 15.0222 19.3828 15.4996L21.7292 14.4233C21.8946 14.3474 22.0006 14.1821 22.0006 14.0001C22.0006 13.8181 21.8946 13.6527 21.7292 13.5769Z" fill="#A6A6A8"/>
<path d="M18.8662 16.7434C18.365 17.6287 17.6294 18.3643 16.7441 18.8654L19.1664 19.7642C19.2192 19.7838 19.274 19.7933 19.3283 19.7933C19.4497 19.7933 19.5688 19.7458 19.6576 19.6569C19.7864 19.5282 19.8282 19.3363 19.765 19.1657L18.8662 16.7434Z" fill="#A6A6A8"/>
<path d="M13.9994 18.6557C11.4323 18.6557 9.34375 16.5672 9.34375 14.0001C9.34375 11.433 11.4323 9.34448 13.9994 9.34448C16.5665 9.34448 18.655 11.433 18.655 14.0001C18.655 16.5672 16.5665 18.6557 13.9994 18.6557Z" fill="#A6A6A8"/>
</svg>
