<svg width="28" height="28" viewBox="0 0 28 28" fill="none" xmlns="http://www.w3.org/2000/svg">
<path d="M21.4368 9.81504H15.4575L18.4862 6.60789L17.9391 6.02096L14.7931 9.33292L11.6471 6L11.1 6.58693L14.1287 9.79408H7.56322C6.70345 9.79408 6 10.5487 6 11.471V21.3231C6 22.2454 6.70345 23 7.56322 23H21.4368C22.2966 23 23 22.2454 23 21.3231V11.471C23 10.5697 22.2966 9.81504 21.4368 9.81504ZM16.5517 19.164C16.5517 19.8557 16.0241 20.4217 15.3793 20.4217H9.32184C8.67701 20.4217 8.14943 19.8557 8.14943 19.164V13.7139C8.14943 13.0222 8.67701 12.4562 9.32184 12.4562H15.3793C16.0241 12.4562 16.5517 13.0222 16.5517 13.7139V19.164ZM19.4828 19.9186C18.7207 19.9186 18.1149 19.2688 18.1149 18.4513C18.1149 17.6338 18.7207 16.984 19.4828 16.984C20.2448 16.984 20.8506 17.6338 20.8506 18.4513C20.8506 19.2688 20.2448 19.9186 19.4828 19.9186ZM21.046 15.6634H17.9195V14.8249H21.046V15.6634ZM21.046 13.5672H17.9195V12.7287H21.046V13.5672Z" fill="#A6A6A8"/>
</svg>
