<svg width="28" height="28" viewBox="0 0 28 28" fill="none" xmlns="http://www.w3.org/2000/svg">
<path d="M19.5 14V14.9231C19.5 16.9123 18.528 18.6477 17.094 19.556L17.4819 20.8732C17.6261 21.3652 17.5527 21.9089 17.2855 22.3289C17.0183 22.7498 16.5864 23 16.1285 23H11.8715C11.4136 23 10.9817 22.7498 10.7145 22.3289C10.4473 21.9089 10.3739 21.3652 10.5181 20.8742L10.906 19.556C9.47282 18.6477 8.5 16.9123 8.5 14.9231V14C8.5 13.1092 9.13958 12.3846 9.92582 12.3846H18.0734C18.8596 12.3846 19.5 13.1092 19.5 14ZM9.11188 9.15385H9.69687L9.90219 11H18.0986L18.449 7.85231C18.5304 7.13231 18.3349 6.40308 17.9112 5.85846C17.4794 5.31385 16.8683 5 16.2247 5H11.7761C11.1325 5 10.5214 5.31385 10.0896 5.85846C9.68221 6.38185 9.49237 7.07692 9.55022 7.76923H9.11188C8.77457 7.76923 8.50081 8.07938 8.50081 8.46154C8.50081 8.84369 8.77457 9.15385 9.11188 9.15385Z" fill="#A6A6A8"/>
</svg>
