<svg width="24" height="24" viewBox="0 0 24 24" fill="none" xmlns="http://www.w3.org/2000/svg">
<path d="M5.91908 5.78998C6.07076 6.03533 6.33326 6.1703 6.60198 6.1703C6.74588 6.1703 6.89163 6.13154 7.02299 6.05033C7.39973 5.81735 7.51631 5.32313 7.28333 4.94638C7.10845 4.66361 7.19323 4.26671 7.35363 3.64672C7.52602 2.98053 7.74052 2.15141 7.29107 1.39319C7.06527 1.01219 6.57349 0.886378 6.19223 1.11218C5.81123 1.33802 5.68542 1.82997 5.91126 2.21101C6.02053 2.39543 5.90881 2.82726 5.80079 3.24496C5.6095 3.98432 5.37141 4.9044 5.91908 5.78998Z" fill="#F2A4A9"/>
<path d="M8.48538 5.78999C8.6371 6.03534 8.89959 6.17034 9.16832 6.17034C9.31222 6.17034 9.45788 6.13163 9.58932 6.05037C9.96607 5.81749 10.0826 5.32322 9.84971 4.94651C9.67483 4.66365 9.75956 4.26684 9.91997 3.6468C10.0924 2.98062 10.3068 2.15154 9.85745 1.39332C9.6316 1.01228 9.13953 0.88651 8.75861 1.11231C8.37757 1.33815 8.25176 1.8301 8.47756 2.2111C8.58691 2.39552 8.47515 2.8274 8.36708 3.24505C8.17592 3.98432 7.93787 4.90441 8.48538 5.78999Z" fill="#F2A4A9"/>
<path d="M1.81738 14.7134L2.54419 19.4843C2.54828 19.5109 2.5503 19.5378 2.5503 19.5648C2.5503 20.4786 3.2188 21.2389 4.09239 21.3833L3.53496 14.7134H1.81738Z" fill="#F2A4A9"/>
<path d="M5.16793 21.4083H7.35185V21.0418C7.1291 20.6597 6.94356 20.2501 6.80284 19.8158C6.61902 19.2481 6.7188 18.6211 7.06968 18.1387C7.15248 18.0249 7.24757 17.9223 7.35181 17.8313V14.7134H4.6084L5.16793 21.4083Z" fill="#F2A4A9"/>
<path d="M8.58289 17.3681H10.9426L11.1644 14.7135H8.4209V17.376C8.47457 17.3713 8.52853 17.3681 8.58289 17.3681Z" fill="#F2A4A9"/>
<path d="M12.0156 17.3681H13.5505L13.955 14.7135H12.2375L12.0156 17.3681Z" fill="#F2A4A9"/>
<path d="M14.5869 10.5684L14.7615 9.42255C14.806 9.13036 14.721 8.83414 14.5284 8.60997C14.3358 8.38581 14.0558 8.2572 13.7602 8.2572H12.7775L12.5869 10.5377H14.3203C14.4108 10.5377 14.5002 10.5484 14.5869 10.5684Z" fill="#F2A4A9"/>
<path d="M1.44173 10.5377H3.18621L2.9956 8.2572H2.01287C1.71729 8.2572 1.43726 8.38581 1.24464 8.60997C1.05205 8.83414 0.967102 9.13036 1.01157 9.42255L1.18577 10.566C1.2693 10.5475 1.35502 10.5377 1.44173 10.5377Z" fill="#F2A4A9"/>
<path d="M7.35137 10.5377V8.2572H4.06836L4.25897 10.5377H7.35137Z" fill="#F2A4A9"/>
<path d="M8.4209 10.5377H11.5134L11.704 8.2572H8.4209V10.5377Z" fill="#F2A4A9"/>
<path d="M22.7592 7.6866C22.5032 7.32514 22.0027 7.23977 21.6412 7.49577C21.4748 7.61372 17.6529 10.4039 16.2591 18.3839H8.65555C8.39894 18.3839 8.15785 18.5066 8.00694 18.7142C7.85599 18.9217 7.8135 19.1889 7.89252 19.433C8.58353 21.5664 10.555 22.9999 12.7983 22.9999C15.0347 22.9999 17.0011 21.575 17.6976 19.4523C17.7155 19.4016 17.7284 19.3487 17.7357 19.294C17.9281 18.0277 18.1854 16.8999 18.4776 15.9018C19.1225 13.6995 19.9383 12.1289 20.6048 11.0979C20.7351 10.8963 20.8633 10.7095 20.988 10.5368C21.8638 9.32344 22.5636 8.80807 22.5684 8.80468C22.9298 8.54859 23.0152 8.048 22.7592 7.6866Z" fill="#F2A4A9"/>
<path d="M13.895 14.0872C14.1827 14.0872 14.4255 13.8734 14.4619 13.588L14.6907 11.7901C14.7342 11.4487 14.4681 11.1466 14.1239 11.1466H1.64861C1.30443 11.1466 1.03833 11.4487 1.08181 11.7901L1.31066 13.588C1.34697 13.8734 1.58983 14.0872 1.87746 14.0872H13.895Z" fill="#F2A4A9"/>
</svg>
