<svg width="24" height="24" viewBox="0 0 24 24" fill="none" xmlns="http://www.w3.org/2000/svg">
<path d="M13.4434 12.9826C13.4434 12.4265 12.684 10.76 11.9414 9.33081C11.1988 10.76 10.4395 12.4265 10.4395 12.9826C10.4395 13.8107 11.1132 14.4845 11.9414 14.4845C12.7696 14.4845 13.4434 13.8107 13.4434 12.9826Z" fill="#F2A4A9"/>
<path d="M11.3761 7.64495C11.4911 7.44025 11.7075 7.31353 11.9423 7.31353C12.177 7.31353 12.3935 7.44029 12.5084 7.64495C12.5308 7.68474 13.0619 8.63237 13.6019 9.74329C14.6247 11.8472 14.7429 12.5996 14.7429 12.9826C14.7429 13.1428 14.7286 13.2997 14.7027 13.4526C15.5936 12.6791 16.1579 11.5387 16.1579 10.2689C16.1579 8.66413 14.0712 4.31693 12.5175 1.34834C12.2745 0.883887 11.61 0.883887 11.3669 1.34834C9.81322 4.31693 7.72656 8.66413 7.72656 10.2689C7.72656 11.5387 8.29087 12.6791 9.18179 13.4526C9.15583 13.2997 9.14157 13.1428 9.14157 12.9826C9.14157 12.5996 9.25986 11.8472 10.2826 9.74329C10.8226 8.63237 11.3537 7.68474 11.3761 7.64495Z" fill="#F2A4A9"/>
<path d="M17.0383 20.0193H4.49059C3.66735 20.0193 3 20.6867 3 21.5099C3 22.3326 3.66739 23 4.49059 23H17.0383C16.7643 22.5685 16.6049 22.0575 16.6049 21.5096C16.6049 20.9618 16.7643 20.4507 17.0383 20.0193Z" fill="#F2A4A9"/>
<path d="M19.3947 22.9999C20.2178 22.9999 20.885 22.3327 20.885 21.5095C20.885 20.6864 20.2178 20.0192 19.3947 20.0192C18.5716 20.0192 17.9043 20.6864 17.9043 21.5095C17.9043 22.3327 18.5716 22.9999 19.3947 22.9999Z" fill="#F2A4A9"/>
<path d="M8.33691 18.7206H17.9041C18.7273 18.7206 19.3946 18.0532 19.3946 17.23C19.3946 16.4073 18.7273 15.7399 17.9041 15.7399H8.33691C8.61088 16.1714 8.7703 16.6823 8.7703 17.2302C8.7703 17.7781 8.61088 18.2891 8.33691 18.7206Z" fill="#F2A4A9"/>
<path d="M5.97963 18.7206C6.80274 18.7206 7.47001 18.0534 7.47001 17.2302C7.47001 16.4071 6.80274 15.7399 5.97963 15.7399C5.15652 15.7399 4.48926 16.4071 4.48926 17.2302C4.48926 18.0534 5.15652 18.7206 5.97963 18.7206Z" fill="#F2A4A9"/>
</svg>
