<svg width="16" height="12" viewBox="0 0 16 12" fill="none" xmlns="http://www.w3.org/2000/svg">
<path d="M14.2105 5.57377C14.0861 5.57377 13.9669 5.52436 13.879 5.43645C12.3087 3.86614 10.2208 3.00133 8.00002 3.00133C5.77923 3.00133 3.69139 3.86614 2.12105 5.43649C2.03314 5.52439 1.91392 5.5738 1.78961 5.5738C1.6653 5.5738 1.54608 5.52439 1.45817 5.43649L0.137297 4.11567C-0.0457656 3.93261 -0.0457656 3.63583 0.137297 3.45277C1.19861 2.39145 2.43627 1.56964 3.81592 1.01017C5.1483 0.46986 6.55602 0.195923 8.00002 0.195923C9.44398 0.195923 10.8517 0.469892 12.1841 1.01017C13.5637 1.56964 14.8014 2.39145 15.8627 3.45277C16.0458 3.6358 16.0458 3.93261 15.8627 4.11567L14.5419 5.43649C14.454 5.52439 14.3348 5.57377 14.2105 5.57377Z" fill="black"/>
<path d="M11.4745 8.30001C11.3501 8.30001 11.2309 8.25064 11.143 8.1627C10.3035 7.32323 9.18738 6.86089 8.00016 6.86089C6.81294 6.86089 5.69682 7.32323 4.85732 8.1627C4.76941 8.25064 4.65019 8.30001 4.52588 8.30001C4.40154 8.30001 4.28232 8.25061 4.19441 8.1627L2.8736 6.84189C2.69057 6.65882 2.69057 6.36204 2.87363 6.17898C4.24297 4.80961 6.06363 4.05548 8.00019 4.05548C9.93675 4.05548 11.7574 4.80961 13.1268 6.17898C13.3098 6.36204 13.3098 6.65882 13.1268 6.84189L11.806 8.1627C11.718 8.25064 11.5988 8.30001 11.4745 8.30001Z" fill="black"/>
<path d="M7.99955 11.8041C6.9282 11.8041 6.05664 10.9412 6.05664 9.88047C6.05664 8.81979 6.92823 7.95685 7.99955 7.95685C9.07089 7.95685 9.94248 8.81979 9.94248 9.88047C9.94248 10.9412 9.07089 11.8041 7.99955 11.8041Z" fill="black"/>
</svg>
